<svg width="137" height="143" viewBox="0 0 137 143" fill="none" xmlns="http://www.w3.org/2000/svg">
<path d="M58.958 95.9794L67.1545 111.361L70.3069 105L74.9463 95.9794L67.1545 92.9436L58.8408 96.0225C58.8798 96.0082 58.9188 95.9939 58.958 95.9794Z" fill="black"/>
<path d="M58.958 95.9794C65.6301 108.5 58.958 95.9794 67.1545 111.361M58.958 95.9794C58.9188 95.9939 58.8798 96.0082 58.8408 96.0225M58.958 95.9794L67.1545 111.361M67.1545 111.361C74.9463 95.9794 69.3156 107 74.9463 95.9794M67.1545 111.361L70.3069 105L74.9463 95.9794M74.9463 95.9794C78.894 97.8008 86.8059 98.9342 88.1012 90.515C92.8235 90.9198 101.58 89.3007 98.8275 79.5863C100.514 79.4514 104.332 78.6148 106.113 76.3481C109.486 79.1141 114.937 86.3864 109.756 93.3484C113.332 96.8563 118.823 105.249 112.185 110.753C115.693 114.464 120.766 123.018 112.994 127.551C115.423 129.777 116.233 136 116.233 142.528M74.9463 95.9794L67.1545 92.9436L58.8408 96.0225M18.0765 142.528V134.635C18.009 132.881 19.2098 129.008 24.5528 127.551C18.9535 125.662 10.8716 119.78 23.3384 111.361C19.2908 108.325 13.9883 100.756 25.1599 94.7651C21.1122 91.3245 16.1336 82.9458 28.6004 76.9553C29.6123 77.8998 32.2838 79.5863 34.8743 78.7767C33.9973 83.0943 34.9553 91.3245 45.803 89.7055C46.0046 93.3342 48.897 99.6537 58.8408 96.0225" stroke="black" stroke-width="3"/>
<path d="M90.0249 115.408C93.0607 118.309 100.711 122.127 107.025 114.194C100.549 124.394 92.9932 119.253 90.0249 115.408Z" stroke="black" stroke-width="3"/>
<path d="M33.8141 105.207C36.2793 108.606 43.119 113.737 50.7559 107.067C42.5525 115.938 36.0433 109.523 33.8141 105.207Z" stroke="black" stroke-width="3"/>
<path d="M44.3305 127.74C46.8916 129.986 53.218 132.81 58.0343 126.134C53.1699 134.658 46.8716 130.756 44.3305 127.74Z" stroke="black" stroke-width="3"/>
<path d="M71.3783 104L74 139H60L62.6218 104H71.3783Z" fill="black"/>
<path d="M41.0481 17.8592C36.5889 18.1036 29.1871 20.7595 31.7944 29.1927C32.0666 30.0729 32.4478 31.0161 32.9527 32.0261C31.8082 32.6906 30.4839 33.6643 29.3098 34.8675C28.0802 36.1277 27.0153 37.6396 26.4944 39.3119C25.6952 41.878 26.1769 44.8215 29.3098 47.812C25.1947 50.5104 19.1907 57.6478 28.0956 64.6098C26.2067 69.467 24.9384 79.4648 34.9766 80.5981C34.5718 85.253 36.2719 93.9555 46.3101 91.5269C46.6474 95.0348 49.9125 101.282 60.2746 98.2055C62.8381 100.971 69.5033 104.641 75.6557 97.1936C79.3661 99.2849 87.0297 101.079 88.0011 91.5269C92.7234 92.4713 101.561 91.6078 99.1322 80.5981C104.124 79.8561 112.409 75.6195 105.608 64.6098C109.521 61.1693 114.999 52.993 105.608 47.812C107.072 45.8136 108.652 42.5089 108.426 39.3119C108.224 36.4652 106.591 33.7038 102.168 32.0261C102.488 31.2146 102.775 30.2445 102.967 29.1927C103.252 27.6276 103.323 25.8816 102.967 24.2082C102.25 20.8355 99.7992 17.7576 93.8702 17.0497C92.5885 11.6528 87.5963 2.35664 77.8819 8.3472C74.7113 3.55745 66.2651 -3.14819 57.846 8.3472C52.6514 6.39083 42.0195 5.55431 41.0481 17.8592Z" fill="white"/>
<path d="M31.7944 29.1927C29.1871 20.7595 36.5889 18.1036 41.0481 17.8592C42.0195 5.55431 52.6514 6.39083 57.846 8.3472C66.2651 -3.14819 74.7113 3.55745 77.8819 8.3472C87.5963 2.35664 92.5885 11.6528 93.8702 17.0497C99.7992 17.7576 102.25 20.8355 102.967 24.2082C103.323 25.8816 103.252 27.6276 102.967 29.1927M31.7944 29.1927C32.0666 30.0729 32.4478 31.0161 32.9527 32.0261C31.8082 32.6906 30.4839 33.6643 29.3098 34.8675C28.0802 36.1277 27.0153 37.6396 26.4944 39.3119M31.7944 29.1927C26.8511 27.1014 14.1716 24.376 3 30.2046C12.3906 40.0809 22.5757 40.3913 26.4944 39.3119M26.4944 39.3119C25.6952 41.878 26.1769 44.8215 29.3098 47.812C25.1947 50.5104 19.1907 57.6478 28.0956 64.6098C26.2067 69.467 24.9384 79.4648 34.9766 80.5981C34.5718 85.253 36.2719 93.9555 46.3101 91.5269C46.6474 95.0348 49.9125 101.282 60.2746 98.2055C62.8381 100.971 69.5033 104.641 75.6557 97.1936C79.3661 99.2849 87.0297 101.079 88.0011 91.5269C92.7234 92.4713 101.561 91.6078 99.1322 80.5981C104.124 79.8561 112.409 75.6195 105.608 64.6098C109.521 61.1693 114.999 52.993 105.608 47.812C107.072 45.8136 108.652 42.5089 108.426 39.3119M102.967 29.1927C102.775 30.2445 102.488 31.2146 102.168 32.0261C106.591 33.7038 108.224 36.4652 108.426 39.3119M102.967 29.1927C107.423 27.5736 119.694 25.3069 133.133 29.1927C128.602 33.4428 117.318 41.4167 108.426 39.3119" stroke="black" stroke-width="3"/>
<path d="M60.5563 29.395C62.85 33.5776 68.9755 39.5547 75.1279 30.0022C77.6276 31.702 82.091 33.3055 84.5642 30.0022C86.3569 33.8108 88.685 32.4187 90.1043 38.9071C92.6572 50.5775 96.783 71.2885 85.6519 82.4196C81.4693 85.3878 74.5208 90.7173 69.2588 90.7173C62.7825 91.5268 49.0204 86.8315 44.1632 70.4789C42.9364 59.2804 42.4901 35.507 50.5195 30.0022C52.9333 31.9742 56.4044 32.8381 60.5563 29.395Z" fill="white"/>
<path d="M47.4014 25.9545C48.0078 27.2431 49.0741 28.8213 50.5195 30.0022M86.259 24.5378C86.0494 27.095 85.4283 28.8481 84.5642 30.0022M84.5642 30.0022C82.091 33.3055 77.6276 31.702 75.1279 30.0022C68.9755 39.5547 62.85 33.5776 60.5563 29.395C56.4044 32.8381 52.9333 31.9742 50.5195 30.0022M84.5642 30.0022C86.3569 33.8108 88.685 32.4187 90.1043 38.9071C92.6572 50.5775 96.783 71.2885 85.6519 82.4196C81.4693 85.3878 74.5208 90.7173 69.2588 90.7173C62.7825 91.5268 49.0204 86.8315 44.1632 70.4789C42.9364 59.2804 42.4901 35.507 50.5195 30.0022" stroke="black" stroke-width="3"/>
<path d="M63.7148 45.7883H72.8221" stroke="black" stroke-width="3"/>
<path d="M58.2507 42.9548C60.0047 43.0223 63.5532 44.0882 63.7151 47.812C63.7151 52.4669 62.7032 59.9551 52.9888 60.7646C46.3776 61.709 34.8957 59.4693 41.8577 42.9548H58.2507Z" fill="white"/>
<path d="M36.1909 42.9548H41.8577M41.8577 42.9548H58.2507C60.0047 43.0223 63.5532 44.0882 63.7151 47.812C63.7151 52.4669 62.7032 59.9551 52.9888 60.7646C46.3776 61.709 34.8957 59.4693 41.8577 42.9548Z" stroke="black" stroke-width="3"/>
<path d="M78.0842 42.7524C76.3302 42.8199 72.7818 43.8858 72.6199 47.6096C72.6199 52.2645 73.6318 59.7527 83.3462 60.5622C89.9574 61.5067 101.439 59.2669 94.4773 42.7524H78.0842Z" fill="white"/>
<path d="M100.144 42.7524H94.4773M94.4773 42.7524H78.0842C76.3302 42.8199 72.7818 43.8858 72.6199 47.6096C72.6199 52.2645 73.6318 59.7527 83.3462 60.5622C89.9574 61.5067 101.439 59.2669 94.4773 42.7524Z" stroke="black" stroke-width="3"/>
<circle cx="53.1913" cy="51.2525" r="3.23814" fill="black"/>
<circle cx="82.3343" cy="51.2525" r="3.23814" fill="black"/>
<path d="M61.4889 69.8718C63.7826 70.6814 68.3294 73.2719 68.1675 77.1576M68.1675 77.1576C69.2469 74.9989 72.1747 70.5195 75.251 69.8718M68.1675 77.1576C68.3699 80.9355 66.7104 86.6292 58.4531 79.1815M68.1675 77.1576C68.5048 80.8005 70.92 86.4268 77.8819 79.7886" stroke="black" stroke-width="3"/>
</svg>
