<svg width="122" height="136" viewBox="0 0 122 136" fill="none" xmlns="http://www.w3.org/2000/svg">
<path d="M52.3691 91.6139C52.3317 91.6277 52.2945 91.6414 52.2574 91.655M106.983 136C106.983 130 106.211 123.842 103.896 121.719C111.306 117.396 106.469 109.24 103.124 105.702C109.453 100.452 104.217 92.4501 100.808 89.1051C105.748 82.4665 100.55 75.532 97.3341 72.8945C95.6358 75.0559 91.9949 75.8536 90.3867 75.9823C93.0113 85.2454 84.6615 86.7893 80.1586 86.4033C78.9235 94.4314 71.3791 93.3507 67.6147 91.6139L60.1849 88.7191L52.2574 91.655M13.3865 136V128.474C13.3222 126.801 14.4672 123.109 19.562 121.719C14.2228 119.918 6.51632 114.309 18.4041 106.281C14.5444 103.386 9.48826 96.1683 20.1409 90.456C16.2813 87.1753 11.5339 79.1858 23.4216 73.4735C24.3865 74.3741 26.9339 75.9823 29.4041 75.2103C28.5678 79.3273 29.4813 87.1753 39.8252 85.6314C40.0174 89.0915 42.7755 95.1175 52.2574 91.655" stroke="black" stroke-width="3"/>
<path d="M81.9932 110.14C84.8879 112.906 92.1827 116.547 98.2037 108.982C92.0283 118.709 84.8236 113.807 81.9932 110.14Z" stroke="black" stroke-width="3"/>
<path d="M28.3935 100.413C30.7443 103.655 37.2662 108.547 44.5484 102.187C36.7261 110.645 30.5192 104.529 28.3935 100.413Z" stroke="black" stroke-width="3"/>
<path d="M38.4217 121.899C40.8639 124.041 46.8963 126.734 51.489 120.368C46.8505 128.496 40.8448 124.775 38.4217 121.899Z" stroke="black" stroke-width="3"/>
<path d="M35.2914 17.1226C31.0393 17.3556 23.9813 19.8881 26.4676 27.9296C26.7271 28.769 27.0906 29.6683 27.5721 30.6314C26.4808 31.2651 25.218 32.1935 24.0984 33.3408C22.9259 34.5425 21.9104 35.9842 21.4138 37.5788C20.6517 40.0256 21.111 42.8324 24.0984 45.684C20.1744 48.2571 14.4493 55.063 22.9405 61.7016C21.1394 66.3332 19.93 75.8666 29.502 76.9473C29.116 81.3859 30.737 89.6841 40.309 87.3683C40.6306 90.7134 43.7441 96.6701 53.6248 93.7368C56.0693 96.3742 62.4249 99.8736 68.2915 92.7719C71.8296 94.766 79.1372 96.4771 80.0635 87.3683C84.5664 88.2689 92.9933 87.4455 90.6775 76.9473C95.4378 76.2397 103.337 72.1999 96.853 61.7016C100.584 58.4209 105.807 50.6244 96.853 45.684C98.2482 43.7785 99.7549 40.6273 99.5394 37.5788C99.3474 34.8643 97.79 32.2312 93.5723 30.6314C93.8771 29.8576 94.1516 28.9326 94.334 27.9296C94.6055 26.4372 94.6733 24.7723 94.334 23.1766C93.6503 19.9606 91.3136 17.0257 85.66 16.3506C84.4378 11.2044 79.6775 2.34008 70.4143 8.05237C67.3909 3.48511 59.3371 -2.90906 51.309 8.05237C46.3558 6.18687 36.2177 5.38921 35.2914 17.1226Z" fill="white"/>
<path d="M26.4676 27.9296C23.9813 19.8881 31.0393 17.3556 35.2914 17.1226C36.2177 5.38921 46.3558 6.18687 51.309 8.05237C59.3371 -2.90906 67.3909 3.48511 70.4143 8.05237C79.6775 2.34008 84.4378 11.2044 85.66 16.3506C91.3136 17.0257 93.6503 19.9606 94.334 23.1766C94.6733 24.7723 94.6055 26.4372 94.334 27.9296M26.4676 27.9296C26.7271 28.769 27.0906 29.6683 27.5721 30.6314C26.4808 31.2651 25.218 32.1935 24.0984 33.3408C22.9259 34.5425 21.9104 35.9842 21.4138 37.5788M26.4676 27.9296C21.7539 25.9354 13.6527 14.9808 3 20.5387C11.9544 29.9563 17.6771 38.608 21.4138 37.5788M21.4138 37.5788C20.6517 40.0256 21.111 42.8324 24.0984 45.684C20.1744 48.2571 14.4493 55.063 22.9405 61.7016C21.1394 66.3332 19.93 75.8666 29.502 76.9473C29.116 81.3859 30.737 89.6841 40.309 87.3683C40.6306 90.7134 43.7441 96.6701 53.6248 93.7368C56.0693 96.3742 62.4248 99.8736 68.2915 92.7719C71.8295 94.766 79.1372 96.4771 80.0635 87.3683C84.5664 88.2689 92.9933 87.4455 90.6775 76.9473C95.4378 76.2397 103.337 72.1999 96.853 61.7016C100.584 58.4209 105.807 50.6244 96.853 45.684C98.2482 43.7785 99.7549 40.6273 99.5394 37.5788M94.334 27.9296C94.1516 28.9326 93.8771 29.8576 93.5723 30.6314C97.79 32.2312 99.3474 34.8643 99.5394 37.5788M94.334 27.9296C98.5831 26.3857 105.642 16.8334 118.456 20.5387C114.136 24.5914 108.018 39.5858 99.5394 37.5788" stroke="black" stroke-width="3"/>
<path d="M53.8938 28.1226C56.0809 32.1109 61.9219 37.8103 67.7886 28.7015C70.1722 30.3224 74.4282 31.8513 76.7865 28.7015C78.496 32.3332 80.7159 31.0057 82.0693 37.1928C84.5036 48.3211 88.4377 68.07 77.8237 78.6841C73.8354 81.5145 67.2096 86.5964 62.1921 86.5964C56.0166 87.3683 42.8938 82.8911 38.2622 67.2981C37.0924 56.6197 36.6668 33.9506 44.3233 28.7015C46.6249 30.5819 49.9347 31.4057 53.8938 28.1226Z" fill="white"/>
<path d="M41.3499 24.8418C41.9282 26.0706 42.945 27.5755 44.3233 28.7015M78.4026 23.491C78.2028 25.9294 77.6105 27.601 76.7865 28.7015M76.7865 28.7015C74.4282 31.8513 70.1722 30.3224 67.7886 28.7015C61.9219 37.8103 56.0809 32.1109 53.8938 28.1226C49.9347 31.4057 46.6249 30.5819 44.3233 28.7015M76.7865 28.7015C78.496 32.3332 80.7159 31.0057 82.0693 37.1928C84.5036 48.3211 88.4377 68.07 77.8237 78.6841C73.8354 81.5145 67.2096 86.5964 62.1921 86.5964C56.0166 87.3683 42.8938 82.8911 38.2622 67.2981C37.0924 56.6197 36.6668 33.9506 44.3233 28.7015" stroke="black" stroke-width="3"/>
<path d="M54.7825 66.7192C56.9697 67.4912 61.3516 67.991 61.1972 71.6963M61.1972 71.6963C62.2265 69.6378 64.972 67.3368 67.9054 66.7192M61.1972 71.6963C61.3115 73.8286 60.3492 76.1716 57.9119 76.2557M61.1972 71.6963C61.3747 73.6128 62.7784 75.77 65.1162 76.2557M50.6372 72.4003C53.8502 75.2983 56.2316 76.3138 57.9119 76.2557M72.5076 73.1043C69.5316 75.9418 67.0156 76.6504 65.1162 76.2557M57.9119 76.2557C58.8819 78.1667 61.6807 80.842 65.1162 76.2557" stroke="black" stroke-width="3"/>
<path d="M65.187 51.0009C67.299 48.7325 72.8841 45.5567 78.3284 51.0009" stroke="black" stroke-width="3"/>
<path d="M44.0669 51.0009C46.1789 48.7325 51.764 45.5567 57.2083 51.0009" stroke="black" stroke-width="3"/>
</svg>
