<svg width="500" height="500" viewBox="0 0 500 500" fill="none" xmlns="http://www.w3.org/2000/svg">
<mask id="mask0_6_25" style="mask-type:alpha" maskUnits="userSpaceOnUse" x="0" y="0" width="500" height="500">
<circle cx="250" cy="250" r="241" fill="white" stroke="black" stroke-width="18"/>
</mask>
<g mask="url(#mask0_6_25)">
<circle cx="250" cy="250" r="241" stroke="black" stroke-width="18"/>
<path d="M223.223 352.547C223.109 352.59 222.995 352.632 222.881 352.674M222.881 352.674C193.843 363.318 185.396 344.793 184.807 334.156C153.129 338.902 150.331 314.776 152.892 302.119C145.327 304.492 137.526 299.548 134.571 296.78C98.1642 314.341 112.703 338.902 124.524 348.988C91.8995 366.549 107.384 388.737 119.204 397.636C82.7978 422.316 106.399 439.561 122.751 445.098C107.148 449.369 103.641 460.721 103.838 465.862V489H247.159H390.481C399.937 469.541 388.117 451.624 381.025 445.098C403.72 431.809 388.905 406.733 378.66 395.856C398.046 379.719 382.01 355.118 371.568 344.835C386.698 324.426 370.78 303.108 360.93 295C355.729 301.645 344.579 304.097 339.653 304.492C347.691 332.969 322.12 337.716 308.33 336.529C304.547 361.209 281.442 357.887 269.914 352.547L247.159 343.648L222.881 352.674Z" stroke="black" stroke-width="12"/>
<path d="M314 409.66C322.929 418.403 345.429 429.912 364 406C344.952 436.744 322.73 421.25 314 409.66Z" stroke="black" stroke-width="6"/>
<path d="M149.698 379.619C156.911 389.564 176.922 404.575 199.267 385.06C175.265 411.014 156.22 392.247 149.698 379.619Z" stroke="black" stroke-width="6"/>
<path d="M180.467 445.545C187.961 452.118 206.47 460.38 220.562 440.848C206.33 465.786 187.902 454.37 180.467 445.545Z" stroke="black" stroke-width="6"/>
<path d="M171.104 124.34C158.083 125.054 136.469 132.814 144.082 157.455C144.877 160.027 145.99 162.783 147.465 165.734C144.123 167.676 140.256 170.521 136.827 174.037C133.237 177.719 130.127 182.137 128.606 187.023C126.272 194.521 127.679 203.122 136.827 211.86C124.811 219.744 107.278 240.599 133.281 260.942C127.766 275.134 124.062 304.347 153.375 307.659C152.193 321.26 157.157 346.688 186.47 339.592C187.455 349.842 196.989 368.095 227.247 359.106C234.733 367.188 254.196 377.911 272.162 356.15C282.996 362.26 305.375 367.503 308.212 339.592C322.001 342.351 347.807 339.828 340.715 307.659C355.293 305.49 379.484 293.111 359.627 260.942C371.052 250.889 387.048 226.998 359.627 211.86C363.899 206.021 368.513 196.364 367.853 187.023C367.266 178.705 362.496 170.637 349.58 165.734C350.514 163.363 351.354 160.529 351.913 157.455C352.744 152.882 352.952 147.781 351.913 142.891C349.819 133.036 342.663 124.043 325.35 121.974C321.607 106.205 307.03 79.0421 278.663 96.5461C269.404 82.5508 244.74 62.9573 220.156 96.5461C204.987 90.8297 173.941 88.3855 171.104 124.34Z" fill="white"/>
<path d="M144.082 157.455C136.469 132.814 158.083 125.054 171.104 124.34C173.941 88.3855 204.987 90.8297 220.156 96.5461C244.74 62.9573 269.404 82.5508 278.663 96.5461C307.03 79.0421 321.607 106.205 325.35 121.974C342.663 124.043 349.819 133.036 351.913 142.891C352.952 147.781 352.744 152.882 351.913 157.455M144.082 157.455C144.877 160.027 145.99 162.783 147.465 165.734C144.123 167.676 140.256 170.521 136.827 174.037C133.237 177.719 130.127 182.137 128.606 187.023M144.082 157.455C129.648 151.345 92.6221 143.381 60 160.412C87.4215 189.27 117.163 190.177 128.606 187.023M128.606 187.023C126.272 194.521 127.679 203.122 136.827 211.86C124.811 219.744 107.278 240.599 133.281 260.942C127.766 275.134 124.062 304.347 153.375 307.659C152.193 321.26 157.157 346.688 186.47 339.592C187.455 349.842 196.989 368.095 227.247 359.106C234.733 367.188 254.196 377.911 272.162 356.15C282.996 362.26 305.375 367.503 308.211 339.592C322.001 342.351 347.807 339.828 340.715 307.659C355.293 305.49 379.484 293.111 359.627 260.942C371.052 250.889 387.048 226.998 359.627 211.86C363.899 206.021 368.513 196.364 367.853 187.023M351.913 157.455C351.354 160.529 350.514 163.363 349.58 165.734C362.496 170.637 367.266 178.705 367.853 187.023M351.913 157.455C364.925 152.725 400.759 146.101 440 157.455C426.77 169.874 393.819 193.173 367.853 187.023" stroke="black" stroke-width="12"/>
<path d="M227.653 157.22C234.321 169.465 252.128 186.963 270.014 158.997C277.281 163.974 290.256 168.668 297.446 158.997C302.658 170.147 309.426 166.072 313.552 185.067C320.973 219.233 332.968 279.866 300.608 312.453C288.449 321.143 268.249 336.745 252.952 336.745C234.124 339.115 194.117 325.369 179.996 277.496C176.43 244.711 175.132 175.113 198.475 158.997C205.492 164.77 215.583 167.3 227.653 157.22Z" fill="white"/>
<path d="M189.41 147.147C191.173 150.92 194.273 155.54 198.475 158.997M302.373 143C301.764 150.486 299.958 155.619 297.446 158.997M297.446 158.997C290.256 168.668 277.281 163.974 270.014 158.997C252.128 186.963 234.321 169.465 227.653 157.22C215.583 167.3 205.492 164.77 198.475 158.997M297.446 158.997C302.658 170.147 309.426 166.072 313.552 185.067C320.973 219.233 332.968 279.866 300.608 312.453C288.449 321.143 268.249 336.745 252.952 336.745C234.124 339.115 194.117 325.369 179.996 277.496C176.43 244.711 175.132 175.113 198.475 158.997" stroke="black" stroke-width="12"/>
<path d="M261.24 269.08L242.84 268.12C241.987 260.12 242.573 253.453 244.6 248.12C246.627 242.787 250.147 238.253 255.16 234.52C258.68 231.747 261.133 229.453 262.52 227.64C263.907 225.827 264.6 223.853 264.6 221.72C264.6 219.48 263.64 217.667 261.72 216.28C259.8 214.787 256.76 214.04 252.6 214.04C247.8 214.04 243.64 215.427 240.12 218.2C236.6 220.973 233.987 224.92 232.28 230.04L213.88 220.12C215.693 214.467 218.627 209.507 222.68 205.24C226.733 200.973 231.533 197.667 237.08 195.32C242.733 192.973 248.76 191.8 255.16 191.8C262.093 191.8 268.12 193.027 273.24 195.48C278.467 197.933 282.52 201.293 285.4 205.56C288.387 209.827 289.88 214.733 289.88 220.28C289.88 226.04 288.6 231.053 286.04 235.32C283.587 239.587 279.747 243.747 274.52 247.8C269.613 251.64 266.2 255.107 264.28 258.2C262.467 261.187 261.453 264.813 261.24 269.08ZM252.28 308.6C247.693 308.6 243.96 307.213 241.08 304.44C238.2 301.667 236.76 298.093 236.76 293.72C236.76 289.453 238.2 285.933 241.08 283.16C243.96 280.387 247.693 279 252.28 279C256.867 279 260.6 280.387 263.48 283.16C266.36 285.933 267.8 289.453 267.8 293.72C267.8 298.093 266.36 301.667 263.48 304.44C260.6 307.213 256.867 308.6 252.28 308.6Z" fill="black"/>
</g>
</svg>
