<svg width="159" height="59" viewBox="0 0 159 59" fill="none" xmlns="http://www.w3.org/2000/svg">
<mask id="mask0_8_250" style="mask-type:alpha" maskUnits="userSpaceOnUse" x="0" y="0" width="159" height="59">
<rect width="159" height="59" fill="#D9D9D9"/>
</mask>
<g mask="url(#mask0_8_250)">
<path d="M50 -1.5C45.1133 -1.22284 36.6976 3.27933 39.555 12.8453C39.8532 13.8438 40.2709 14.9136 40.8243 16.0593C39.5701 16.8131 38.1188 17.9175 36.8322 19.2823C35.4846 20.7118 34.3177 22.4268 33.7469 24.3237C32.871 27.2345 33.3989 30.5734 36.8322 33.9656C32.3225 37.0265 25.7429 45.1226 35.5015 53.0197C33.4315 58.5294 32.0416 69.87 43.0422 71.1556C42.5987 76.4357 44.4617 86.3071 55.4623 83.5523C55.8319 87.5315 59.4101 94.6175 70.7655 91.1281C73.5748 94.2655 80.879 98.4283 87.6213 89.9802C91.6874 92.3524 100.086 94.3879 101.15 83.5523C106.325 84.6236 116.01 83.6441 113.348 71.1556C118.819 70.3139 127.898 65.5083 120.446 53.0197C124.734 49.1171 130.737 39.8425 120.446 33.9656C122.049 31.6987 123.781 27.9502 123.533 24.3237C123.312 21.0946 121.522 17.9624 116.675 16.0593C117.026 15.1388 117.341 14.0384 117.551 12.8453C117.863 11.07 117.941 9.08944 117.551 7.19124C116.765 3.36554 114.497 -0.696972 108 -1.5C106.595 -7.62182 100.707 -17.5955 90.0609 -10.8002C86.5863 -16.2333 77.3304 -23.8397 68.1041 -10.8002C62.4115 -13.0194 51.0645 -15.4577 50 -1.5Z" fill="white"/>
<path d="M39.555 12.8453C36.6976 3.27933 45.1133 -1.22284 50 -1.5C51.0645 -15.4577 62.4115 -13.0194 68.1041 -10.8002C77.3304 -23.8397 86.5863 -16.2333 90.0609 -10.8002C100.707 -17.5955 106.595 -7.62182 108 -1.5C114.497 -0.696973 116.765 3.36554 117.551 7.19124C117.941 9.08944 117.863 11.07 117.551 12.8453M39.555 12.8453C39.8532 13.8438 40.2709 14.9136 40.8243 16.0593C39.5701 16.8131 38.1188 17.9175 36.8322 19.2823C35.4846 20.7118 34.3177 22.4268 33.7469 24.3237M39.555 12.8453C34.1377 10.4731 20.2426 7.38157 8 13.9931C18.2909 25.1961 29.4525 25.5481 33.7469 24.3237M33.7469 24.3237C32.871 27.2345 33.3989 30.5734 36.8322 33.9656C32.3225 37.0265 25.7429 45.1226 35.5015 53.0197C33.4315 58.5294 32.0416 69.87 43.0422 71.1556C42.5987 76.4357 44.4617 86.3071 55.4623 83.5523C55.8319 87.5315 59.4101 94.6175 70.7655 91.1281C73.5748 94.2655 80.879 98.4283 87.6213 89.9802C91.6874 92.3524 100.086 94.3879 101.15 83.5523C106.325 84.6236 116.01 83.6441 113.348 71.1556C118.819 70.3139 127.898 65.5083 120.446 53.0197C124.734 49.1171 130.737 39.8425 120.446 33.9656C122.049 31.6987 123.781 27.9502 123.533 24.3237M117.551 12.8453C117.341 14.0384 117.026 15.1388 116.675 16.0593C121.522 17.9624 123.312 21.0946 123.533 24.3237M117.551 12.8453C122.434 11.0087 135.882 8.43758 150.609 12.8453C145.644 17.6662 133.277 26.7112 123.533 24.3237" stroke="black" stroke-width="3"/>
<path d="M71.0741 13.0749C73.5877 17.8194 80.3004 24.5993 87.0427 13.7637C89.7821 15.6918 94.6733 17.5106 97.3836 13.7637C99.3483 18.0838 101.9 16.5047 103.455 23.8647C106.253 37.1027 110.774 60.5956 98.5756 73.2218C93.992 76.5888 86.3774 82.6341 80.6109 82.6341C73.5138 83.5524 58.4323 78.2264 53.1094 59.6773C51.765 46.9745 51.2759 20.0079 60.0751 13.7637C62.7203 16.0005 66.5242 16.9805 71.0741 13.0749Z" fill="white"/>
<path d="M71.0741 13.0749C73.5877 17.8194 80.3004 24.5993 87.0427 13.7637C89.7821 15.6918 94.6733 17.5106 97.3836 13.7637C99.3483 18.0838 101.9 16.5047 103.455 23.8647C106.253 37.1027 110.774 60.5956 98.5756 73.2218C93.992 76.5888 86.3774 82.6341 80.6109 82.6341C73.5138 83.5524 58.4323 78.2264 53.1094 59.6773C51.765 46.9745 51.2759 20.0079 60.0751 13.7637C62.7203 16.0005 66.5242 16.9805 71.0741 13.0749Z" fill="white"/>
<path d="M56.658 9.17229C57.3226 10.634 58.4911 12.4242 60.0751 13.7637M99.241 7.56531C99.0113 10.466 98.3306 12.4545 97.3836 13.7637M97.3836 13.7637C94.6733 17.5106 89.7821 15.6918 87.0427 13.7637C80.3004 24.5993 73.5877 17.8194 71.0741 13.0749C66.5242 16.9805 62.7203 16.0005 60.0751 13.7637M97.3836 13.7637C99.3483 18.0838 101.9 16.5047 103.455 23.8647C106.253 37.1027 110.774 60.5956 98.5756 73.2218C93.992 76.5888 86.3774 82.6341 80.6109 82.6341C73.5138 83.5524 58.4323 78.2264 53.1094 59.6773C51.765 46.9745 51.2759 20.0079 60.0751 13.7637" stroke="black" stroke-width="3"/>
<circle cx="66" cy="37" r="5" fill="black"/>
<circle cx="68" cy="35" r="1" fill="white"/>
<circle cx="95" cy="37" r="5" fill="black"/>
<circle cx="97" cy="35" r="1" fill="white"/>
<path d="M135 58.8271C135.389 56.5514 135.583 52 139.082 52C140.731 52 141.522 56.3857 141.2 58.2044C142.234 55.5192 144.349 52.6334 146.081 52C148.819 50.9982 148.297 57.4617 147.83 58.8271H140.979C140.816 59.0467 140.579 59.0684 140.249 58.8271H135Z" fill="black"/>
<path d="M140.249 58.8271C140.579 59.0684 140.816 59.0467 140.979 58.8271M140.979 58.8271C141.74 57.8039 140.979 52 139.082 52C135.583 52 135.389 56.5514 135 58.8271H147.83C148.297 57.4617 148.819 50.9982 146.081 52C144.214 52.6827 141.902 55.9825 140.979 58.8271Z" stroke="black" stroke-width="2"/>
<path d="M27 58.8271C26.6411 56.5514 26.4617 52 23.2317 52C21.7266 52 20.9966 56.2878 21.2669 58.1422C20.3707 55.3847 18.826 52 16.7718 52C14.5435 52 14.7261 57.4616 15.1568 58.8271H21.4807C21.6314 59.0467 21.8506 59.0684 22.155 58.8271H27Z" fill="black"/>
<path d="M22.155 58.8271C21.8506 59.0684 21.6314 59.0467 21.4807 58.8271M21.4807 58.8271C20.7786 57.8039 21.4807 52 23.2317 52C26.4617 52 26.6411 56.5514 27 58.8271H15.1568C14.7261 57.4616 14.5435 52 16.7718 52C19 52 20.6288 55.9824 21.4807 58.8271Z" stroke="black" stroke-width="2"/>
<path d="M85.5002 49C83.8335 51.3333 81.8002 56.2 87.0002 57M79 50.5C81.3333 52.1667 84.6 56 79 58" stroke="black" stroke-width="2"/>
</g>
</svg>
